<?xml version="1.0" encoding="UTF-8"?>
<!DOCTYPE svg PUBLIC "-//W3C//DTD SVG 1.1//EN" "http://www.w3.org/Graphics/SVG/1.1/DTD/svg11.dtd">
<!-- Creator: CorelDRAW -->
<svg xmlns="http://www.w3.org/2000/svg" xml:space="preserve" width="102.127mm" height="19.4754mm" version="1.1" style="shape-rendering:geometricPrecision; text-rendering:geometricPrecision; image-rendering:optimizeQuality; fill-rule:evenodd; clip-rule:evenodd"
viewBox="0 0 102.1266 19.4754"
 xmlns:xlink="http://www.w3.org/1999/xlink"
 xmlns:xodm="http://www.corel.com/coreldraw/odm/2003">
 <defs>
  <style type="text/css">
   <![CDATA[
    .str0 {stroke:#A56FB3;stroke-width:0.1;stroke-miterlimit:22.9256}
    .fil9 {fill:#120521}
    .fil2 {fill:#788891}
    .fil8 {fill:#8F8C95}
    .fil3 {fill:#B994C3}
    .fil1 {fill:#D4FDFD}
    .fil0 {fill:#FAFEFE}
    .fil5 {fill:#FC67FC}
    .fil4 {fill:#FC98FD}
    .fil6 {fill:#FCB8FD}
    .fil7 {fill:#FDDCFD}
   ]]>
  </style>
 </defs>
 <g id="Слой_x0020_1">
  <metadata id="CorelCorpID_0Corel-Layer"/>
  <path class="fil0 str0" d="M72.4909 19.1102c0,-0.7655 -0.0287,-1.4923 0.0846,-2.0867 0.1675,-0.8789 0.1799,-1.7813 0.8222,-1.6502 0.4105,0.0839 0.2186,0.2214 0.5935,0.365 0.1827,-0.4233 0.2038,-0.3305 0.5998,-0.3622l0.7224 -0.3034c0.6369,0.5593 0.4797,1.2403 0.5151,2.5067 -0.2151,-0.2181 -0.0068,-5.5138 0.0612,-5.7762l0.0714 -0.1761c0.008,-0.0204 0.0251,-0.0571 0.0438,-0.0817 0.0801,-1.2546 0.8535,-2.1364 2.0401,-2.3161 0.7015,-0.1063 1.4188,0.0159 1.8646,0.3315 0.6857,0.4855 0.5622,0.6188 0.8906,1.327 0.3795,0.3027 0.2417,1.9812 0.2581,2.7412 0.0151,0.7009 0.1599,2.2593 0.0365,2.8227l0.0309 -1.6682 0.3124 -0.1836c0.1344,-0.146 0.1129,0.0515 0.143,-0.3086 0.0218,0.0233 0.0456,0.0348 0.0564,0.0775 0.1126,0.446 1.6185,0.2504 2.416,0.2873l0.1856 -4.4054c0.4529,-2.0285 -2.9823,-5.1477 -6.3928,-3.5096 -1.4283,0.686 -1.3235,1.3725 -1.9328,1.8684l0.0141 -6.4998 -3.475 -0.044 0.0383 17.0445z"/>
  <path class="fil0 str0" d="M56.2874 15.9145c0.2042,-0.2989 0.0635,-0.2952 0.2964,-0.7349l1.1211 -0.4127c0.5031,0.0353 0.9183,0.3632 1.1732,0.3242l0.3828 -0.1848c0.2742,-0.0922 0.1757,0.2327 0.2522,-0.1401 -0.0776,-0.3964 -0.5984,-1.2025 -0.8019,-1.9285 -0.6354,-2.2663 -0.2523,-5.1583 1.2351,-6.788 1.7244,-1.8894 5.7421,-1.9609 6.8164,1.4245 0.2676,0.8434 0.0333,0.5574 3.7392,0.5575 -0.2888,-5.2154 -6.6189,-8.0786 -11.6427,-5.3795 -5.5506,2.9822 -4.3786,11.569 -2.5718,13.2623z"/>
  <path class="fil0 str0" d="M32.3847 12.3385c-0.4175,1.5107 -0.9064,2.9632 -2.9326,2.8979 -1.7219,-0.0556 -2.4069,-1.4804 -2.6342,-3.1327 -0.2899,-0.3194 -0.2417,0.4643 -0.2053,-0.5155l0.0009 0.5605c-0.8005,-0.4934 0.1913,0.1233 -1.7804,0.1385 -1.0615,0.0083 -1.1831,0.0057 -1.3793,-0.7941l-0.0475 6.2458 3.3799 -0.0298 0.0173 -1.9819c0.6494,0.9961 1,1.5347 2.1026,2.0005 1.0681,0.4512 2.5021,0.4211 3.5479,0.0509 2.1177,-0.7495 3.5455,-3.3451 3.4106,-5.0201l-0.0625 -2.0403c-0.0068,1.0109 0.0533,0.3337 -0.2186,0.495 -0.2394,0.1419 -1.9539,0.0926 -2.5493,0.1146 -0.0187,0.0007 -0.0569,0.0011 -0.0753,0.0009 -0.0064,0 -0.2339,-0.0346 -0.2746,-0.0373 0,1.3113 -0.1075,0.9672 -0.2996,1.0471z"/>
  <path class="fil0 str0" d="M37.3571 12.9761c-0.0262,0.5768 0.1443,1.1811 0.3891,1.7195 0.2448,0.5386 0.5642,1.0114 0.8357,1.3252 2.4569,2.8403 6.6614,2.6455 9.4191,0.6647 0.0787,-0.7463 -0.039,-1.2547 0.5223,-2.0246 0.2922,-0.4007 0.2823,-0.074 0.2904,-0.5303l-2.3883 -0.1633c-0.5414,0.695 -0.4791,0.8924 -1.364,1.281 -2.084,0.9151 -4.7023,-0.3275 -4.4606,-2.8436l7.9013 -0.0244c0.0974,-0.1167 0.0736,-0.0863 0.1638,-0.2531 0.0155,-0.0288 0.1014,-0.2091 0.1148,-0.2416 0.1128,-0.2727 0.1304,-0.2952 0.1417,-0.5642 -0.541,-0.312 -0.4582,0.2237 -1.5407,-0.2832 -0.3499,-0.1638 -0.283,-0.034 -0.717,0.0838 -0.2475,0.0671 -0.026,0.0163 -0.1993,0.0447 -0.1901,0.0312 -0.2298,0.0316 -0.3818,0.0165 -0.6016,-0.0599 -0.6939,-0.4295 -1.7397,-0.0898 -1.3205,0.4289 -2.1226,-0.0975 -4.073,0.3071 -0.4485,0.093 -0.3131,0.1907 -0.7548,0.3988 -0.9308,0.4386 -1.521,-0.1041 -2.0917,0.0147l-0.0673 1.1621z"/>
  <path class="fil1 str0" d="M59.5131 14.7662c-0.0765,0.3728 0.022,0.0479 -0.2522,0.1401l-0.3828 0.1848c-0.2549,0.039 -0.6701,-0.2889 -1.1732,-0.3242l-1.1211 0.4127c-0.2329,0.4397 -0.0922,0.436 -0.2964,0.7349 0.5781,1.1602 1.9401,2.2726 3.1674,2.7833 6.1164,2.5452 11.2469,-2.0589 11.0001,-5.4255l-3.5182 -0.0172c-0.8333,3.3567 -4.5051,3.8191 -6.5888,2.2418l-0.5507 -0.4925c-0.02,-0.0185 -0.045,-0.0423 -0.065,-0.0601l-0.2191 -0.1781z"/>
  <path class="fil2 str0" d="M86.5897 19.1499c0.5562,0.1404 3.0128,0.1661 3.5148,-0.0119l0.0273 -12.589 -3.4835 -0.0374c-0.2071,0.5613 -0.2346,11.7091 -0.0586,12.6383z"/>
  <polygon class="fil3 str0" points="17.4084,17.8563 20.9888,17.873 21.029,5.1767 17.434,5.1371 "/>
  <path class="fil4 str0" d="M26.7862 17.7091l-3.3799 0.0298 0.0475 -6.2458 0.0235 -2.0175c0.0195,-0.6353 0.2871,-2.4491 -0.0067,-2.8449 0.0382,0.669 0.1351,0.9575 0.1908,1.5804 0.8223,-0.277 -0.6122,0.3534 0.2348,-0.1522 0.5588,-0.3336 1.5242,-0.0398 2.9419,-0.2582 1.1215,-0.1728 2.0251,-0.3253 3.0788,-0.3081 0.6772,0.0111 0.9137,-0.0748 1.3055,-0.1022 0.593,-0.0414 0.28,-0.0113 0.6123,0.1215 0.0193,0.0077 0.0501,0.0245 0.0707,0.0308 0.0212,0.0065 0.0542,0.0164 0.0769,0.021l1.3447 0.0516c0.2076,-0.0414 0.198,-0.0258 0.4037,-0.0458 0.6536,-0.0635 0.5995,-0.1484 0.7113,-0.2068 0.5281,-0.2758 -0.4229,0.0339 0.1498,-0.0399 0.2136,-0.0275 -0.1695,0.1657 0.3149,-0.043 -0.5681,-1.2746 -2.2935,-2.3444 -4.0691,-2.3695 -1.0818,-0.0152 -1.797,0.1847 -2.4737,0.6792 -0.3032,0.2216 -0.561,0.4271 -0.8358,0.779 -0.3503,0.4486 -0.3462,0.7464 -0.666,0.8396l-0.0499 -6.4123 -3.4586 -0.0195 -0.0059 17.0409 3.0945 0.0199c0.2875,-0.0461 0.1681,0.0094 0.344,-0.128z"/>
  <path class="fil0 str0" d="M95.8127 2.1018l-3.1184 -0.0113c-0.2976,0.9542 -0.0635,11.7114 -0.0249,13.5136 0.1306,-1.3762 0.2391,-0.6644 0.2714,-1.7353l1.8137 0.0095 0.0107 0.8022 1.0571 0.0116 -0.0096 -12.5903z"/>
  <path class="fil0 str0" d="M98.4624 16.0661c0.017,-0.0259 0.0351,-0.0992 0.0401,-0.0837l0.1819 -1.7181c0.0247,-0.1854 0.0793,-0.5531 0.1342,-0.7791 0.0689,-0.2833 0.126,-0.6201 0.3417,-0.6339 0.5329,0.1464 0.3374,0.1358 0.5409,0.58 0.9156,-0.1798 0.736,-0.0827 1.2972,1.012 0.5249,-0.2585 0.3207,0.0036 0.55,-0.5501 0.0009,0.0537 -0.0013,0.4222 0.0021,0.436 0.1289,0.5282 -0.2188,0.2225 0.2644,0.3746 -0.0205,-2.0917 0.0147,-4.1791 0.0118,-6.2703 -0.0021,-1.5222 0.1829,-5.0974 -0.0619,-6.3701l-3.2431 0.0059 -0.0593 13.9968z"/>
  <path class="fil0 str0" d="M4.0988 12.4291c0.0118,0.5041 1.5082,4.792 1.8006,5.4095l4.3068 0.0535c0.3184,-0.9669 1.8898,-4.861 1.882,-5.5716l-0.0697 -0.1947c-0.4211,0.4066 -0.6045,0.2532 -1.7325,0.2505 -0.5658,-0.0013 -1.0416,0.0733 -1.4286,-0.1741 -0.0146,-0.0093 -0.0593,-0.018 -0.0698,-0.0548 -0.0111,-0.0388 -0.0474,-0.0404 -0.0709,-0.0607 -0.1592,0.4859 -0.2862,1.4165 -0.6237,1.85 -0.3403,-0.4785 -0.4494,-1.2991 -0.6334,-1.8335l-0.2902 0.3603c-0.7546,0.0269 -1.1794,-0.0298 -1.7556,-0.081 -1.0375,-0.0923 -0.6983,0.201 -1.3264,-0.3824l0.0114 0.429z"/>
  <path class="fil0 str0" d="M50.0962 14.195c-2.5705,1.7945 -1.0639,3.715 0.8255,3.8185 1.1108,0.0608 1.313,-0.1835 2.0831,-0.524 0.4375,0.2478 0.1533,0.294 0.6951,0.3764 0.2684,0.0408 0.871,0.017 1.1687,0.0169 -0.2385,-0.4848 -0.9582,-0.9501 -0.8571,-1.4185 0.1808,-0.8373 0.3611,-0.9977 0.3828,-2.071l-1.1059 0.0441 -0.1918 1.1916c-0.4045,-0.1315 -1.0776,-0.9832 -1.2761,-1.3311 0.5209,-0.5244 1.2099,-0.7607 1.2109,-1.8481 0.0017,-1.9219 -2.8051,-2.0579 -3.4896,-0.5654 -0.5637,1.2289 0.3034,1.6099 0.5544,2.3106z"/>
  <path class="fil0 str0" d="M86.6762 14.6579l0.24 -0.3425c0.3944,-0.5337 -0.0319,-0.4331 1.5163,-0.4653 0.6954,-0.0145 0.7433,-0.1491 0.7984,0.3564 0.308,-0.1195 0.0628,-0.0477 0.2399,-0.2264 0.1837,-0.1853 -0.0834,-0.0998 0.2222,-0.2178 0.147,0.3095 0.0257,0.1306 0.0851,0.4448l0.2336 -1.3845 0.023 -6.1632 -3.3032 -0.0129 -0.0553 8.0114z"/>
  <path class="fil4 str0" d="M37.9392 8.1089c0.2302,0.1208 0.2256,-0.1434 0.2833,0.7626l0.1202 0.1161c0.2238,-0.6624 0.9656,-0.4525 2.2864,-0.4403 -0.0962,0.7814 0.2276,-0.531 0.6952,-0.4933 0.4717,0.038 -0.0214,-0.2682 0.284,0.144 0.8993,-0.5342 1.1574,-0.7811 2.5424,-0.588 0.2034,-0.5201 0.7575,-0.0032 1.2989,0.1369l0.5482 0.1496c0.6498,0.2152 1.48,0.0829 2.1185,0.2249l-0.1502 -0.7545c-0.0173,-0.2895 -0.0549,-0.1073 0.0758,-0.2814 -0.2865,-0.65 -1.3218,-1.3527 -2.1723,-1.6978 -0.9981,-0.4049 -2.1537,-0.5499 -3.3748,-0.4383 -2.1445,0.1958 -3.8344,1.6359 -4.5556,3.1595z"/>
  <path class="fil1 str0" d="M95.8127 2.1018l0.0096 12.5903 -1.0571 -0.0116 -0.0107 -0.8022 -1.8137 -0.0095c-0.0323,1.0709 -0.1408,0.3591 -0.2714,1.7353 -0.0386,-1.8022 -0.2727,-12.5594 0.0249,-13.5136 -0.2733,0.1747 -0.2158,-0.2547 -0.2333,0.3394l-0.0131 16.7049 3.5133 0.0056c0.1537,-3.6807 -0.0011,-8.8172 0.0241,-12.7851l0.0165 -3.8129c-0.0729,-0.5312 0.1144,-0.2073 -0.1891,-0.4406z"/>
  <path class="fil5 str0" d="M1.5694 5.0274l0.0128 -0.3265 0.4678 0.2885c0.0175,0.017 0.0417,0.0409 0.058,0.059 0.2292,0.2546 0.1634,0.321 0.3278,0.5738l2.6344 -0.0021c0.0221,-0.4537 -0.0759,-0.6439 0.1884,-0.9396l-1.2107 -4.0876c-0.8941,-0.2989 -2.9844,-0.0789 -4.0592,-0.0596 0.1083,0.5789 0.5148,1.7315 0.7296,2.3255 0.2203,0.609 0.4298,1.7311 0.8511,2.1686z"/>
  <path class="fil6 str0" d="M23.4773 9.4756l0.1543 0.6966c0.447,0.0062 1.5184,0.0497 1.8814,-0.0255l0.7203 -0.1827c0.5698,-0.0644 0.4167,0.1655 0.6428,-0.2361l-0.0184 0.4848c0.4865,-0.5068 0.5033,-2.0701 2.1643,-2.4707 1.898,-0.4577 2.5579,1.0186 3.0399,1.6163 0.4606,0.1263 0.4383,0.4295 0.6128,0.7966 0.1457,-0.2233 0.031,-0.3097 0.0715,-0.5398l0.2683 0.4287c0.8476,-0.3267 2.1003,0.4344 2.593,-0.4626l0.1481 -0.4568c-0.2363,-0.6898 -0.4577,-1.4589 -0.8489,-1.8446 -0.4844,0.2087 -0.1013,0.0155 -0.3149,0.043 -0.5727,0.0738 0.3783,-0.2359 -0.1498,0.0399 -0.1118,0.0584 -0.0577,0.1433 -0.7113,0.2068 -0.2057,0.02 -0.1961,0.0044 -0.4037,0.0458l-1.3447 -0.0516c-0.0227,-0.0046 -0.0557,-0.0145 -0.0769,-0.021 -0.0206,-0.0063 -0.0514,-0.0231 -0.0707,-0.0308 -0.3323,-0.1328 -0.0193,-0.1629 -0.6123,-0.1215 -0.3918,0.0274 -0.6283,0.1133 -1.3055,0.1022 -1.0537,-0.0172 -1.9573,0.1353 -3.0788,0.3081 -1.4177,0.2184 -2.3831,-0.0754 -2.9419,0.2582 -0.847,0.5056 0.5875,-0.1248 -0.2348,0.1522 -0.0557,-0.6229 -0.1526,-0.9114 -0.1908,-1.5804 0.2938,0.3958 0.0262,2.2096 0.0067,2.8449z"/>
  <path class="fil5 str0" d="M10.8611 5.0784l0.2227 -0.2832c0.0282,0.0355 0.0403,0.0505 0.0451,0.1005l0.0818 0.2878c0.0866,0.3448 -0.0843,0.11 0.115,0.4317 0.2488,-0.0264 0.181,0.048 0.3651,-0.2963l0.0654 -0.1662c0.0076,-0.0184 0.014,-0.0606 0.0314,-0.0855l0.2403 0.5536 1.7224 -0.0019c0.5715,-0.5859 0.3354,-0.5669 0.6221,-0.7492 0.4591,-0.2919 0.1486,-0.1213 0.318,-0.0078 0.3172,-0.417 1.3859,-3.6942 1.4739,-4.303l-3.9443 -0.0298 -1.3589 4.5493z"/>
  <path class="fil1 str0" d="M80.8002 10.8878l0.0666 8.2111 3.4736 0.0347c0.131,-0.8254 0.0657,-5.2626 0.0586,-6.6592 -0.002,-0.3854 -0.0064,-0.7706 -0.008,-1.156 -0.0017,-0.4112 0.0294,-0.7639 -0.1519,-1.0677l-0.1856 4.4054c-0.7975,-0.0369 -2.3034,0.1587 -2.416,-0.2873 -0.0108,-0.0427 -0.0346,-0.0542 -0.0564,-0.0775 -0.0301,0.3601 -0.0086,0.1626 -0.143,0.3086l-0.3124 0.1836 -0.0309 1.6682c0.1234,-0.5634 -0.0214,-2.1218 -0.0365,-2.8227 -0.0164,-0.76 0.1214,-2.4385 -0.2581,-2.7412z"/>
  <path class="fil1 str0" d="M98.4624 16.0661l-0.0175 3.0395 3.3363 -0.0149 0.0337 -4.3869c-0.4832,-0.1521 -0.1355,0.1536 -0.2644,-0.3746 -0.0034,-0.0138 -0.0012,-0.3823 -0.0021,-0.436 -0.2293,0.5537 -0.0251,0.2916 -0.55,0.5501 -0.5612,-1.0947 -0.3816,-1.1918 -1.2972,-1.012 -0.2035,-0.4442 -0.008,-0.4336 -0.5409,-0.58 -0.2157,0.0138 -0.2728,0.3506 -0.3417,0.6339 -0.0549,0.226 -0.1095,0.5937 -0.1342,0.7791l-0.1819 1.7181c-0.005,-0.0155 -0.0231,0.0578 -0.0401,0.0837z"/>
  <path class="fil0 str0" d="M17.5347 12.3671l-0.0077 5.3821 3.3925 -0.0046 -0.0085 -5.6023c-0.1393,0.204 -0.2351,0.2906 -0.3241,0.5672l-2.4875 -0.166c-0.6489,0.0101 -0.0542,0.0107 -0.5647,-0.1764z"/>
  <path class="fil1 str0" d="M86.6762 14.6579l0.0035 4.4434 3.3471 -0.0031 -0.0151 -6.2756 -0.2336 1.3845c-0.0594,-0.3142 0.0619,-0.1353 -0.0851,-0.4448 -0.3056,0.118 -0.0385,0.0325 -0.2222,0.2178 -0.1771,0.1787 0.0681,0.1069 -0.2399,0.2264 -0.0551,-0.5055 -0.103,-0.3709 -0.7984,-0.3564 -1.5482,0.0322 -1.1219,-0.0684 -1.5163,0.4653l-0.24 0.3425z"/>
  <path class="fil7 str0" d="M46.2368 9.8932l-0.1592 0.3406 -5.4536 0.0808c-0.1936,-0.2134 -0.2324,-0.25 -0.0862,-0.7535 -0.3895,0.1792 -0.0235,0.1431 -0.5183,0.3298 -0.0175,0.0066 -0.0497,0.0187 -0.0688,0.0252 -0.4732,0.1618 -0.4463,0.1053 -1.0328,0.1143 -0.5114,0.0078 -0.6043,0.1178 -0.9848,0.0894 -0.2845,-0.0213 -0.3279,-0.1053 -0.3998,-0.4938 -0.0068,0.9565 0.0386,0.2218 -0.2238,0.515 -0.1416,0.6927 -0.3617,2.2723 0.0476,2.8351l0.0673 -1.1621c0.5707,-0.1188 1.1609,0.4239 2.0917,-0.0147 0.4417,-0.2081 0.3063,-0.3058 0.7548,-0.3988 1.9504,-0.4046 2.7525,0.1218 4.073,-0.3071 1.0458,-0.3397 1.1381,0.0299 1.7397,0.0898 0.152,0.0151 0.1917,0.0147 0.3818,-0.0165 0.1733,-0.0284 -0.0482,0.0224 0.1993,-0.0447 0.434,-0.1178 0.3671,-0.2476 0.717,-0.0838 1.0825,0.5069 0.9997,-0.0288 1.5407,0.2832 0.1468,-0.1003 0.2114,-0.0959 0.3542,-0.2934 0.1679,-0.2324 0.1375,-0.1687 0.1303,-0.5318 -0.0059,-0.2998 -0.1188,-0.9286 -0.2157,-1.0798 -0.1974,-0.1634 -0.1784,0.1531 -0.2591,-0.2393 -0.021,0.6545 0.0353,0.5049 -0.6016,0.4642 -0.8715,-0.0556 0.0655,0.2203 -1.3239,0.14 -0.8037,-0.0465 -0.3899,0.1909 -0.6143,-0.0734 -0.1198,-0.1413 0.1378,0.2058 -0.0818,-0.13l-0.0737 0.3153z"/>
  <path class="fil1 str0" d="M72.4909 19.1102l3.4789 0.0201 0.0351 -7.5849c-0.0187,0.0246 -0.0358,0.0613 -0.0438,0.0817l-0.0714 0.1761c-0.068,0.2624 -0.2763,5.5581 -0.0612,5.7762 -0.0354,-1.2664 0.1218,-1.9474 -0.5151,-2.5067l-0.7224 0.3034c-0.396,0.0317 -0.4171,-0.0611 -0.5998,0.3622 -0.3749,-0.1436 -0.183,-0.2811 -0.5935,-0.365 -0.6423,-0.1311 -0.6547,0.7713 -0.8222,1.6502 -0.1133,0.5944 -0.0846,1.3212 -0.0846,2.0867z"/>
  <path class="fil5 str0" d="M23.3375 3.6761c0.0145,0.0017 0.5419,-0.0987 0.2304,-0.2309l0.0755 1.4369c0.6129,-0.2278 2.1355,-0.3041 2.9692,-0.3346 0.0341,-0.9083 0.1884,-1.5229 0.1946,-2.7192 0.0002,-0.0349 -0.0226,-0.4533 -0.0265,-0.4688 -0.1734,-0.696 -0.4452,-0.5726 -1.7159,-0.5693 -0.5769,0.0014 -1.154,0.0001 -1.7309,0.0001l0.0036 2.8858z"/>
  <path class="fil0 str0" d="M87.8934 1.4193c-2.3407,0.6303 -1.4325,4.1546 1.0551,3.5057 2.2125,-0.5772 1.4072,-4.1687 -1.0551,-3.5057z"/>
  <path class="fil5 str0" d="M18.664 0.1469c-2.4818,0.6709 -1.251,4.0554 1.1575,3.3746 2.2273,-0.6295 1.405,-4.0673 -1.1575,-3.3746z"/>
  <path class="fil6 str0" d="M2.3357 7.2904c-0.0052,0.4996 0.2527,1.0114 0.4188,1.5011l0.6356 1.4992c-0.052,-0.6306 -0.0058,-0.2044 0.091,-0.3866 0.0693,0.1425 0.0983,0.2385 0.2198,0.3581 0.2368,0.2334 0.2628,0.0717 0.4036,0.3412 0.0105,-0.0018 0.0097,-0.0391 0.0111,-0.0299l0.0406 -0.0578c0.2934,-0.1706 -0.4269,-0.0347 0.1293,-0.0386 0.2503,-0.0017 0.1513,0.3965 0.197,-0.0209 0.6131,0.0037 0.9904,0.0098 1.5218,0.1533l0.4615 0.1014c0.0078,-0.0022 0.0358,-0.0146 0.0432,-0.0183l0.3278 -0.3738c-0.03,0.7608 -0.0343,0.1422 0.2086,0.3994l-1.0534 -3.5791 -0.1814 -0.1232c-0.0007,-0.0032 -0.0023,0.0095 0.0003,0.0084 0.0362,0.4571 0.2429,0.7213 -0.0632,1.0034 -0.2448,0.2255 -0.2748,0.0454 -0.3925,0.0181 -0.4737,-0.1095 -2.274,-0.4106 -2.5444,-0.1266 -0.0902,-0.4268 -0.2164,-0.451 -0.4272,-0.8705l-0.0479 0.2417z"/>
  <path class="fil4 str0" d="M10.8611 5.0784l-0.6095 2.032c0.4173,0.3358 -0.1784,0.3567 0.1254,0.9999 0.2464,0.5218 0.2448,0.2021 0.3054,0.1736 0.4942,-0.2326 -0.1428,-0.398 0.1564,-0.1954 0.4574,-0.1871 0.9181,-0.1065 1.5342,-0.1137 1.001,-0.0116 0.6858,-0.2717 0.9065,-0.0863l0.0664 0.1044c0.0063,0.0092 0.0186,0.0466 0.0329,0.0669 0.0838,-0.4053 0.1059,-0.8085 0.3415,-0.5367 0.1102,-0.1154 0.073,-0.0529 0.1731,-0.2346l0.797 -2.4266c-0.1694,-0.1135 0.1411,-0.2841 -0.318,0.0078 -0.2867,0.1823 -0.0506,0.1633 -0.6221,0.7492l-1.7224 0.0019 -0.2403 -0.5536c-0.0174,0.0249 -0.0238,0.0671 -0.0314,0.0855l-0.0654 0.1662c-0.1841,0.3443 -0.1163,0.2699 -0.3651,0.2963 -0.1993,-0.3217 -0.0284,-0.0869 -0.115,-0.4317l-0.0818 -0.2878c-0.0048,-0.05 -0.0169,-0.065 -0.0451,-0.1005l-0.2227 0.2832z"/>
  <path class="fil7 str0" d="M17.5347 12.3671c0.5105,0.1871 -0.0842,0.1865 0.5647,0.1764l2.4875 0.166c0.089,-0.2766 0.1848,-0.3632 0.3241,-0.5672l-0.0097 -2.8027c-0.3156,0.2523 -0.03,0.0675 -0.2877,0.493 -0.2539,0.4193 -0.1751,-0.2259 -0.2347,0.4658l-0.2729 -0.2561c-0.2247,-0.1225 -1.6912,-0.1318 -1.8665,-0.1668 -0.0219,-0.0044 -0.0558,-0.0103 -0.0765,-0.017 -0.4254,-0.1371 -0.1921,-0.2568 -0.6174,-0.4798l-0.0109 2.9884z"/>
  <path class="fil4 str0" d="M1.5694 5.0274c-0.0005,0.3803 0.4647,1.8924 0.7663,2.263l0.0479 -0.2417c0.2108,0.4195 0.337,0.4437 0.4272,0.8705 0.2704,-0.284 2.0707,0.0171 2.5444,0.1266 0.1177,0.0273 0.1477,0.2074 0.3925,-0.0181 0.3061,-0.2821 0.0994,-0.5463 0.0632,-1.0034 -0.0026,0.0011 -0.001,-0.0116 -0.0003,-0.0084l0.1814 0.1232 -0.7334 -2.4586c-0.2643,0.2957 -0.1663,0.4859 -0.1884,0.9396l-2.6344 0.0021c-0.1644,-0.2528 -0.0986,-0.3192 -0.3278,-0.5738 -0.0163,-0.0181 -0.0405,-0.042 -0.058,-0.059l-0.4678 -0.2885 -0.0128 0.3265z"/>
  <path class="fil6 str0" d="M9.4685 9.6369c0.2564,-0.1304 0.2783,0.2263 0.2115,-0.1547 0.011,0.3852 0.0488,0.3707 0.1271,0.6593l0.5734 0.1239c0.4628,0.1109 1.1149,0.2936 1.6308,0.1338l0.8784 -0.1383c0.2031,-0.3857 0.878,-2.2949 0.8306,-2.7378 -0.2356,-0.2718 -0.2577,0.1314 -0.3415,0.5367 -0.0143,-0.0203 -0.0266,-0.0577 -0.0329,-0.0669l-0.0664 -0.1044c-0.2207,-0.1854 0.0945,0.0747 -0.9065,0.0863 -0.6161,0.0072 -1.0768,-0.0734 -1.5342,0.1137 -0.2992,-0.2026 0.3378,-0.0372 -0.1564,0.1954 -0.0606,0.0285 -0.059,0.3482 -0.3054,-0.1736 -0.3038,-0.6432 0.2919,-0.6641 -0.1254,-0.9999l-0.7831 2.5265z"/>
  <path class="fil6 str0" d="M17.5456 9.3787c0.4253,0.223 0.192,0.3427 0.6174,0.4798 0.0207,0.0067 0.0546,0.0126 0.0765,0.017 0.1753,0.035 1.6418,0.0443 1.8665,0.1668l0.2729 0.2561c0.0596,-0.6917 -0.0192,-0.0465 0.2347,-0.4658 0.2577,-0.4255 -0.0279,-0.2407 0.2877,-0.493l-0.0405 -2.7305c0.0089,0.1634 -0.001,0.4401 -0.0447,0.6381 -0.1378,0.6255 -0.0244,0.0283 -0.184,0.4698 -0.3146,0.1039 0.0382,-0.0815 -0.5324,-0.1355l-2.4359 -0.0641 -0.0978 -0.876 -0.0204 2.7373z"/>
  <path class="fil7 str0" d="M9.4685 9.6369l-0.7518 2.4498c0.0235,0.0203 0.0598,0.0219 0.0709,0.0607 0.0105,0.0368 0.0552,0.0455 0.0698,0.0548 0.387,0.2474 0.8628,0.1728 1.4286,0.1741 1.128,0.0027 1.3114,0.1561 1.7325,-0.2505l0.0697 0.1947c0.419,-0.4385 0.6557,-1.4144 0.8015,-2.0596l-0.8784 0.1383c-0.5159,0.1598 -1.168,-0.0229 -1.6308,-0.1338l-0.5734 -0.1239c-0.0783,-0.2886 -0.1161,-0.2741 -0.1271,-0.6593 0.0668,0.381 0.0449,0.0243 -0.2115,0.1547z"/>
  <path class="fil4 str0" d="M17.566 6.6414l0.0978 0.876 2.4359 0.0641c0.5706,0.054 0.2178,0.2394 0.5324,0.1355 0.1596,-0.4415 0.0462,0.1557 0.184,-0.4698 0.0437,-0.198 0.0536,-0.4747 0.0447,-0.6381l0.0084 -1.3124 -3.2922 -0.0123 -0.011 1.357z"/>
  <path class="fil7 str0" d="M23.4538 11.4931c0.1962,0.7998 0.3178,0.8024 1.3793,0.7941 1.9717,-0.0152 0.9799,-0.6319 1.7804,-0.1385l-0.0009 -0.5605c-0.0364,0.9798 -0.0846,0.1961 0.2053,0.5155l0.0398 -1.891 0.0184 -0.4848c-0.2261,0.4016 -0.073,0.1717 -0.6428,0.2361l-0.7203 0.1827c-0.363,0.0752 -1.4344,0.0317 -1.8814,0.0255l-0.1543 -0.6966 -0.0235 2.0175z"/>
  <path class="fil7 str0" d="M3.3901 10.2907c-0.0277,0.465 0.4041,1.8048 0.7087,2.1384l-0.0114 -0.429c0.6281,0.5834 0.2889,0.2901 1.3264,0.3824 0.5762,0.0512 1.001,0.1079 1.7556,0.081l0.2902 -0.3603 -0.4142 -1.385c-0.2429,-0.2572 -0.2386,0.3614 -0.2086,-0.3994l-0.3278 0.3738c-0.0074,0.0037 -0.0354,0.0161 -0.0432,0.0183l-0.4615 -0.1014c-0.5314,-0.1435 -0.9087,-0.1496 -1.5218,-0.1533 -0.0457,0.4174 0.0533,0.0192 -0.197,0.0209 -0.5562,0.0039 0.1641,-0.132 -0.1293,0.0386l-0.0406 0.0578c-0.0014,-0.0092 -0.0006,0.0281 -0.0111,0.0299 -0.1408,-0.2695 -0.1668,-0.1078 -0.4036,-0.3412 -0.1215,-0.1196 -0.1505,-0.2156 -0.2198,-0.3581 -0.0968,0.1822 -0.143,-0.244 -0.091,0.3866z"/>
  <path class="fil6 str0" d="M44.1507 7.61c0.5692,0.2057 1.0312,0.4419 1.3407,0.808 0.3182,0.3765 0.4157,1.0458 0.7454,1.4752l0.0737 -0.3153c0.2196,0.3358 -0.038,-0.0113 0.0818,0.13 0.2244,0.2643 -0.1894,0.0269 0.6143,0.0734 1.3894,0.0803 0.4524,-0.1956 1.3239,-0.14 0.6369,0.0407 0.5806,0.1903 0.6016,-0.4642 0.0807,0.3924 0.0617,0.0759 0.2591,0.2393 -0.0936,-0.6487 -0.5066,-1.6681 -0.9339,-2.1461l-0.1598 -0.1444c-0.0091,-0.0078 -0.036,-0.0285 -0.0556,-0.0404 -0.1307,0.1741 -0.0931,-0.0081 -0.0758,0.2814l0.1502 0.7545c-0.6385,-0.142 -1.4687,-0.0097 -2.1185,-0.2249l-0.5482 -0.1496c-0.5414,-0.1401 -1.0955,-0.657 -1.2989,-0.1369z"/>
  <path class="fil7 str0" d="M32.0619 9.3583c0.3634,1.2787 0.418,1.5391 0.3228,2.9802 0.1921,-0.0799 0.2996,0.2642 0.2996,-1.0471 0.0407,0.0027 0.2682,0.0373 0.2746,0.0373 0.0184,0.0002 0.0566,-0.0002 0.0753,-0.0009 0.5954,-0.022 2.3099,0.0273 2.5493,-0.1146 0.2719,-0.1613 0.2118,0.5159 0.2186,-0.495l0.0625 2.0403c0.453,-0.651 -0.0076,-2.8393 -0.109,-3.6341l-0.1481 0.4568c-0.4927,0.897 -1.7454,0.1359 -2.593,0.4626l-0.2683 -0.4287c-0.0405,0.2301 0.0742,0.3165 -0.0715,0.5398 -0.1745,-0.3671 -0.1522,-0.6703 -0.6128,-0.7966z"/>
  <path class="fil8 str0" d="M101.7648 2.0634c0.2448,1.2727 0.0598,4.8479 0.0619,6.3701 0.0029,2.0912 -0.0323,4.1786 -0.0118,6.2703l-0.0337 4.3869 -3.3363 0.0149 0.0175 -3.0395 0.0593 -13.9968c-0.2418,0.1575 -0.0901,-0.2296 -0.183,0.3552 -0.0088,0.0555 0.0044,0.4908 0.0054,0.5822 0.0312,2.7051 -0.0969,15.1647 0.0411,16.1365 0.5403,0.1502 2.9933,0.1615 3.4995,-0.011 0.2489,-2.3891 0.0312,-9.508 0.0577,-12.7769l0.0274 -3.8187c-0.0631,-0.784 0.0488,-0.2634 -0.205,-0.4732z"/>
  <path class="fil6 str0" d="M37.9392 8.1089c-0.2646,0.6872 -0.534,1.2182 -0.6297,2.0321 0.2624,-0.2932 0.217,0.4415 0.2238,-0.515 0.0719,0.3885 0.1153,0.4725 0.3998,0.4938 0.3805,0.0284 0.4734,-0.0816 0.9848,-0.0894 0.5865,-0.009 0.5596,0.0475 1.0328,-0.1143 0.0191,-0.0065 0.0513,-0.0186 0.0688,-0.0252 0.4948,-0.1867 0.1288,-0.1506 0.5183,-0.3298 -0.1462,0.5035 -0.1074,0.5401 0.0862,0.7535 0.0505,-1.1398 0.4651,-1.5371 0.9843,-2.1166 -0.3054,-0.4122 0.1877,-0.106 -0.284,-0.144 -0.4676,-0.0377 -0.7914,1.2747 -0.6952,0.4933 -1.3208,-0.0122 -2.0626,-0.2221 -2.2864,0.4403l-0.1202 -0.1161c-0.0577,-0.906 -0.0531,-0.6418 -0.2833,-0.7626z"/>
  <path class="fil9 str0" d="M52.2045 16.607c-0.1263,-0.2979 -0.4294,-0.632 -0.64,-0.8711 -0.2468,-0.2803 -0.5277,-0.6293 -0.8688,-0.7039 -1.3716,1.1289 0.0703,2.6644 1.5088,1.575z"/>
  <path class="fil9 str0" d="M51.1576 13.5126c0.33,-0.1606 0.6511,-0.3383 0.7371,-0.7291 0.1151,-0.5228 -0.1233,-0.8382 -0.618,-0.8214 -0.8605,0.029 -0.9348,1.1238 -0.1191,1.5505z"/>
  <path class="fil9 str0" d="M88.0716 2.0484c-1.5002,0.404 -0.9181,2.6628 0.6763,2.2469 1.418,-0.3699 0.9019,-2.6719 -0.6763,-2.2469z"/>
 </g>
</svg>
